<?xml version="1.0" encoding="utf-8"?>
<!-- Generator: Adobe Illustrator 26.5.0, SVG Export Plug-In . SVG Version: 6.00 Build 0)  -->
<svg version="1.1" id="Layer_1" xmlns="http://www.w3.org/2000/svg" xmlns:xlink="http://www.w3.org/1999/xlink" x="0px" y="0px"
	 viewBox="0 0 256 256" style="enable-background:new 0 0 256 256;" xml:space="preserve">
<style type="text/css">
	.st0{fill:#D6D6D6;}
	.st1{fill:#A5A4A4;}
</style>
<g transform="translate(1.4065934065934016 1.4065934065934016) scale(2.81 2.81)">
	<rect x="-82.9" y="-82.9" class="st0" width="256" height="256"/>
	<path class="st1" d="M45.1,51.2c-11.5,0-20.8-9.3-20.8-20.8c0-11.5,9.3-20.8,20.8-20.8s20.8,9.3,20.8,20.8
		C65.9,41.9,56.5,51.2,45.1,51.2z"/>
	<path class="st1" d="M45.1,80.5c-10.6,0-20.9-3.8-29-10.6c-0.6-0.5-0.9-1.4-0.6-2.2C20.1,55.4,32,47.2,45.1,47.2s25,8.2,29.6,20.4
		c0.3,0.8,0.1,1.7-0.6,2.2C66,76.7,55.7,80.5,45.1,80.5z"/>
</g>
</svg>
