<?xml version="1.0" encoding="UTF-8"?><svg id="Layer_1" xmlns="http://www.w3.org/2000/svg" viewBox="0 0 318.7 323.4"><path d="M0,140.9c.5-2.4,1.2-4.7,1.6-7.1,.7-3.5,2.2-4.4,5.6-3.2,24.9,8.1,49.8,16.5,74.3,26,1,.4,2,.7,3.2,1.2,0-1,0-1.8,0-2.7,0-2.8,0-5.7,0-8.5,0-15.2-.1-30.4-.2-45.7,0-9.6-.2-19.3-.3-28.9-.1-8.7-.4-17.4-.5-26.1,0-5-.2-10.1,.2-15.1,.8-11,4.5-21.1,11-30.1,.5-.7,.7-.8,3.2-.5,21.1,97.4,41.1,195,61.7,292.6,.3-1.3,.7-2.6,1-3.9,3.4-15.1,6.8-30.2,10.1-45.3,4.3-20,8.3-40,12.5-60,5.3-25.5,10.7-51,16.1-76.5,5.3-25.1,10.6-50.3,15.9-75.4,2.2-10.4,4.4-20.9,6.6-31.3,2.3-.5,2.7-.4,4,1.5,5,7.4,8.7,15.3,10.3,24.2,.9,5.2,.7,10.3,.5,15.5-.2,4.4-.3,8.9-.4,13.3-.1,9.9-.2,19.7-.3,29.6,0,8-.1,16.1-.2,24.1,0,10.4-.2,20.9-.2,31.3,0,5.6-.1,11.3-.2,16.9,0,.2,0,.3,0,.6,2.2-.8,4.4-1.6,6.5-2.4,22.7-8.8,45.8-16.4,68.9-24,.7-.2,1.4-.4,2.1-.6,2.2-.5,3.6,.3,4.1,2.5,.6,2.5,1.1,5,1.6,7.5,0,.2,.2,.4,.3,.6v18.7c-.3,.9-.7,1.8-1,2.7-.8,2.4-1.6,4.7-3.6,6.5-7.7,6.9-15.3,13.9-22.9,20.9-4,3.7-8.8,4.8-13.9,3.3-11.6-3.4-23-7.1-34.5-10.7-2.5-.8-4.9-1.8-7.6-2.7,0,6.7-.2,13.2,0,19.7,.5,13.1-2.2,25.3-8.6,36.8-6.3,11.3-12.4,22.7-18.4,34.1-7.3,13.8-14.5,27.7-22.8,41-2.5,4-4.9,8.1-7.4,12.2h-36.2c-1.4-2.1-2.9-4-4.1-6.2-10.4-18.9-20.6-37.8-31-56.7-4.3-7.8-8.9-15.4-12.9-23.4-7.3-14.6-10.9-30-9-46.5,.4-3.1,0-6.4-.1-9.6,0-.6,0-1.2,0-2-.6,.2-1,.3-1.5,.5-13.3,5-27,8.9-40.6,13-5.8,1.8-11.1,.9-15.7-3.4-6.7-6.2-13.4-12.3-20.2-18.4-3.1-2.7-5.4-5.8-6.2-9.9,0-.5-.4-.9-.6-1.4,0-6.2,0-12.5,0-18.7Zm173.9,158.8c.7,.5,1.1,.3,1.4-.3,.4-.7,.8-1.4,1.2-2.2,11.8-22.8,23.6-45.6,35.4-68.3,1.8-3.4,3.5-6.8,3.9-10.6,.8-7.6,1.5-15.3,1.9-22.9,.5-8.8,.8-17.7,1.2-26.6,0-1.4,0-2.9,0-4.5-5.6,6.3-11.3,12.1-15.6,19.2-1.9,3.1-3.3,6.3-4.2,9.7-.8,3.3-1.6,6.6-2.4,9.9-7,29.5-14,58.9-21,88.4-.7,2.7-1.2,5.5-1.8,8.2Zm-29,0c.8-1.3,.8-2.6,.5-3.8-3.1-12.8-6.2-25.6-9.2-38.4-4.3-18.3-8.6-36.6-12.8-54.9-1.5-6.6-3.2-13.2-7-18.8-4.3-6.4-8.9-12.6-13.3-18.9,0,0-.1,0-.3,0v1.3c0,13.2,0,26.5,0,39.7,0,8.2,1.9,15.9,5.6,23.2,10.1,19.8,20.3,39.5,30.5,59.3,1.9,3.8,3.9,7.5,6,11.4Z"/></svg>